<svg width="133" height="37" viewBox="0 0 133 37" fill="none" xmlns="http://www.w3.org/2000/svg">
<path d="M18.6498 32.0739C17.9077 31.6126 17.2584 31.4281 16.2381 31.4281C14.754 31.4281 14.3836 31.8894 14.3836 32.3507C14.3836 32.9043 14.8467 32.9965 15.496 33.0888L17.3512 33.2733C18.557 33.4578 19.2991 33.9191 19.2991 34.934C19.2991 36.2257 18.0932 36.7792 16.3309 36.7792C15.125 36.7792 14.2908 36.5947 13.3632 35.9489L13.7343 35.303C14.5685 35.8566 15.3105 36.0412 16.4236 36.0412C17.6294 36.0412 18.3715 35.6721 18.3715 34.934C18.3715 34.3804 18.0005 34.1037 17.2584 34.0114L15.4033 33.8268C14.2908 33.7346 13.5487 33.2733 13.5487 32.2584C13.5487 31.059 14.754 30.5977 16.2381 30.5977C17.2584 30.5977 18.186 30.69 19.0208 31.3358L18.6498 32.0739Z" fill="white"/>
<path d="M26.5335 30.8748L29.038 36.7795H28.2031L27.8321 35.8569H23.4731L23.1021 36.7795H22.1746L24.7717 30.8748H26.5335ZM23.6587 35.0265H27.3683L25.9776 31.6129H25.1428L23.6587 35.0265Z" fill="white"/>
<path d="M33.0265 30.8748V35.9491H37.3854V36.7795H32.1917V30.8748H33.0265Z" fill="white"/>
<path d="M43.3213 36.8713C41.4662 36.8713 40.0748 35.6719 40.0748 33.8267C40.0748 31.9814 41.4662 30.782 43.3213 30.782C45.1764 30.782 46.5678 31.9814 46.5678 33.8267C46.5678 35.6719 45.1764 36.8713 43.3213 36.8713ZM43.3213 36.1332C44.7127 36.1332 45.733 35.3028 45.733 33.8267C45.733 32.3505 44.6199 31.5201 43.3213 31.5201C41.93 31.5201 40.9096 32.3505 40.9096 33.8267C40.9096 35.3028 42.0227 36.1332 43.3213 36.1332Z" fill="white"/>
<path d="M50.7412 30.8748L55.008 35.6724V30.8748H55.8429V36.7795H54.9153L50.6485 31.9819V36.7795H49.8137V30.8748H50.7412Z" fill="white"/>
<path d="M69.7552 32.0739C69.0131 31.6126 68.3638 31.4281 67.3435 31.4281C65.86 31.4281 65.489 31.8894 65.489 32.3507C65.489 32.9043 65.9528 32.9965 66.6021 33.0888L68.4566 33.2733C69.6625 33.4578 70.4045 33.9191 70.4045 34.934C70.4045 36.2257 69.1987 36.7792 67.4363 36.7792C66.231 36.7792 65.3962 36.5947 64.4687 35.9489L64.8397 35.303C65.6745 35.8566 66.4166 36.0412 67.529 36.0412C68.7349 36.0412 69.4769 35.6721 69.4769 34.934C69.4769 34.3804 69.1059 34.1037 68.3639 34.0114L66.5093 33.8268C65.3962 33.7346 64.6542 33.2733 64.6542 32.2584C64.6542 31.059 65.86 30.5977 67.3435 30.5977C68.3638 30.5977 69.2914 30.69 70.1262 31.3358L69.7552 32.0739Z" fill="white"/>
<path d="M79.2158 30.8748V31.6129H76.6186V36.7795H75.7844V31.6129H73.1872V30.8748H79.2158Z" fill="white"/>
<path d="M83.0182 30.8748V33.9194C83.0182 35.3033 83.6675 36.1337 85.1516 36.1337C86.6357 36.1337 87.2844 35.2111 87.2844 33.9194V30.8748H88.212V33.9194C88.212 35.8569 87.0061 36.964 85.2443 36.964C83.3892 36.964 82.2761 35.8569 82.2761 33.9194V30.8748H83.0182Z" fill="white"/>
<path d="M94.334 30.8748C96.0036 30.8748 97.4877 31.9819 97.4877 33.8271C97.4877 35.6724 96.0036 36.7795 94.334 36.7795H91.4585V30.8748H94.334ZM92.2933 35.9491H94.334C95.8181 35.9491 96.7456 35.1188 96.7456 33.7349C96.7456 32.3509 95.8181 31.5206 94.334 31.5206H92.2933V35.9491Z" fill="white"/>
<path d="M101.568 30.8748H100.734V36.7795H101.568V30.8748Z" fill="white"/>
<path d="M107.969 36.8713C106.113 36.8713 104.722 35.6719 104.722 33.8267C104.722 31.9814 106.113 30.782 107.969 30.782C109.823 30.782 111.214 31.9814 111.214 33.8267C111.214 35.6719 109.823 36.8713 107.969 36.8713ZM107.969 36.1332C109.359 36.1332 110.38 35.3028 110.38 33.8267C110.38 32.3505 109.267 31.5201 107.969 31.5201C106.577 31.5201 105.557 32.3505 105.557 33.8267C105.557 35.3028 106.577 36.1332 107.969 36.1332Z" fill="white"/>
<path d="M119.376 32.0739C118.634 31.6126 117.985 31.4281 116.965 31.4281C115.481 31.4281 115.11 31.8894 115.11 32.3507C115.11 32.9043 115.574 32.9965 116.223 33.0888L118.078 33.2733C119.284 33.4578 120.026 33.9191 120.026 34.934C120.026 36.2257 118.82 36.7792 117.058 36.7792C115.852 36.7792 115.018 36.5947 114.09 35.9489L114.461 35.303C115.296 35.8566 116.038 36.0412 117.151 36.0412C118.356 36.0412 119.098 35.6721 119.098 34.934C119.098 34.3804 118.727 34.1037 117.985 34.0114L116.131 33.8268C115.018 33.7346 114.275 33.2733 114.275 32.2584C114.275 31.059 115.481 30.5977 116.965 30.5977C117.985 30.5977 118.913 30.69 119.748 31.3358L119.376 32.0739Z" fill="white"/>
<path d="M3.62437 19.3497C3.62437 20.4568 2.97507 21.0104 1.76923 21.0104C0.65615 21.0104 0.0996094 20.4568 0.0996094 19.3497V2.46588C0.0996094 1.45105 0.65615 0.897461 1.76923 0.897461C3.06783 0.897461 3.71712 1.45105 3.71712 2.46588V19.3497H3.62437Z" fill="white"/>
<path d="M38.5913 0.897461C38.313 0.897461 38.1275 0.897461 37.942 0.989697C37.8492 0.989697 37.8493 0.989697 37.7565 0.989697C37.6637 0.989697 37.571 1.08199 37.4782 1.08199C37.3855 1.08199 37.2927 1.17423 37.2 1.17423L24.5856 9.1087L12.0647 1.26652C11.9719 1.17423 11.8791 1.17423 11.7864 1.17423C11.6936 1.17423 11.6009 1.08199 11.5081 1.08199C11.4154 1.08199 11.4154 1.08199 11.3226 1.08199C11.0443 0.897461 10.8588 0.897461 10.5805 0.897461C9.46747 0.897461 8.91093 1.45105 8.91093 2.46588V19.3497C8.91093 20.4568 9.46747 21.0104 10.6733 21.0104C11.8791 21.0104 12.5284 20.4568 12.5284 19.3497V5.69502L23.7514 12.7069C24.0297 12.8914 24.3074 12.9837 24.5856 12.9837H24.7711C25.0494 12.9837 25.3277 12.8914 25.606 12.7069L36.8289 5.69502V19.3497C36.8289 20.4568 37.4782 21.0104 38.6841 21.0104C39.7971 21.0104 40.4464 20.4568 40.4464 19.3497V2.46588C40.2609 1.45105 39.7044 0.897461 38.5913 0.897461Z" fill="white"/>
<path d="M100.084 0.897461C98.9712 0.897461 98.4146 1.45105 98.4146 2.46588V15.8438L79.2152 1.35876C79.1224 1.26652 78.9369 1.17423 78.8442 1.08199C78.6586 0.989697 78.4731 0.897461 78.2876 0.897461C78.1021 0.897461 77.9166 0.897461 77.6383 0.897461C76.5258 0.897461 75.9693 1.45105 75.9693 2.46588V19.3497C75.9693 20.4568 76.5258 21.0104 77.7311 21.0104C78.9369 21.0104 79.5862 20.4568 79.5862 19.3497V6.06409L98.8784 20.5491C98.9712 20.6414 99.0639 20.6414 99.1567 20.7337C99.435 20.9182 99.806 21.0104 100.27 21.0104C101.476 21.0104 102.124 20.4568 102.124 19.3497V2.46588C102.032 1.45105 101.383 0.897461 100.084 0.897461Z" fill="white"/>
<path d="M123.457 0.897461H116.316C109.823 0.897461 106.577 2.74271 106.577 6.34085V19.2575C106.577 20.3646 107.133 20.9182 108.432 20.9182C109.638 20.9182 110.287 20.3646 110.287 19.2575V12.5224H129.579V19.3497C129.579 20.4568 130.135 21.0104 131.434 21.0104C132.64 21.0104 133.289 20.4568 133.289 19.3497V6.43315C133.289 2.74271 130.042 0.897461 123.457 0.897461ZM110.287 9.57005V6.34085C110.287 4.68019 112.049 3.84983 115.295 3.84983H124.478C127.817 3.84983 129.486 4.68019 129.486 6.34085V9.47776H110.287V9.57005Z" fill="white"/>
<path d="M70.7749 3.94207C71.4242 3.94207 71.9807 3.38854 71.9807 2.74271V2.09688C71.9807 1.45105 71.4242 0.897461 70.7749 0.897461H46.0106C45.4541 0.897461 45.0831 1.26652 45.0831 1.82006V14.7367C45.0831 18.8884 48.5151 20.9182 55.3785 20.9182H70.8676C71.6097 20.9182 72.1662 20.3646 72.1662 19.6265V19.0729C72.1662 18.3349 71.6097 17.7813 70.8676 17.7813H54.4509C50.7412 17.7813 48.7933 16.8587 48.7933 15.1057V12.4301H67.2507C67.9 12.4301 68.456 11.8765 68.456 11.2307V10.6772C68.456 10.0314 67.9 9.47776 67.2507 9.47776H48.7006V3.94207H70.7749Z" fill="white"/>
</svg>
